<svg xmlns="http://www.w3.org/2000/svg" width="132.766" height="19.71" viewBox="0 0 132.766 19.71"><path d="M14.775.012,12.362,9.478H9.1L7.391,3.131,5.659,9.472H2.413L0,0H2.9L4.151,6.817,5.919.006H9.008l1.81,6.836L12.066.012Z" transform="translate(0 5.647)" fill="#202124"/><path d="M4.863,9.739H4.688a5.069,5.069,0,0,1-2.394-.6A4.173,4.173,0,0,1,.6,7.446,5.274,5.274,0,0,1,0,4.869,5.343,5.343,0,0,1,.6,2.281,4.1,4.1,0,0,1,2.294.6,5.148,5.148,0,0,1,4.71,0h.128a5.127,5.127,0,0,1,2.41.6A4.071,4.071,0,0,1,8.9,2.227,4.841,4.841,0,0,1,9.5,4.64a4.162,4.162,0,0,1-.1.76H2.831a2.193,2.193,0,0,0,.536,1.533A1.811,1.811,0,0,0,4.58,7.4h.049l.072,0a1.7,1.7,0,0,0,1-.321,1.572,1.572,0,0,0,.561-.832H9.323a3.942,3.942,0,0,1-.814,1.81A4.3,4.3,0,0,1,6.916,9.292,4.9,4.9,0,0,1,4.863,9.739ZM4.7,2.316a1.907,1.907,0,0,0-1.256.472,1.975,1.975,0,0,0-.6,1.393h3.7a1.748,1.748,0,0,0-.489-1.406h.006a1.851,1.851,0,0,0-1.222-.459H4.7Z" transform="translate(15.335 5.526)" fill="#202124"/><path d="M4.308.507A3.62,3.62,0,0,1,6.166,0V3.1H5.333a2.9,2.9,0,0,0-1.81.489,1.991,1.991,0,0,0-.615,1.7V9.593H0V.127H2.9v1.78A4.163,4.163,0,0,1,4.308.507Z" transform="translate(26.317 5.575)" fill="#202124"/><path d="M5.738,12.549,2.908,8.531v4.018H0V0H2.9V6.884l2.86-3.831H9.17L5.333,7.813l3.9,4.736Z" transform="translate(33.695 2.594)" fill="#202124"/><path d="M5.808,12.677a3.434,3.434,0,0,1-1.766-.49A2.869,2.869,0,0,1,2.9,10.841v1.714H0V0H2.9V4.827A2.921,2.921,0,0,1,4.048,3.408a3.431,3.431,0,0,1,1.765-.489h.113a3.851,3.851,0,0,1,2.08.609,4.039,4.039,0,0,1,1.46,1.689A5.888,5.888,0,0,1,10,7.807a5.885,5.885,0,0,1-.537,2.577A4.019,4.019,0,0,1,8,12.073a3.852,3.852,0,0,1-2.07.6H5.808ZM4.989,5.463a2.135,2.135,0,0,0-1.508.618l-.006.024a2.331,2.331,0,0,0-.6,1.689,2.334,2.334,0,0,0,.6,1.678,2.112,2.112,0,0,0,3.017,0,2.406,2.406,0,0,0,.573-1.7,2.4,2.4,0,0,0-.567-1.7A2.138,2.138,0,0,0,4.989,5.463Z" transform="translate(43.976 2.624)" fill="#202124"/><path d="M4.944,9.723h-.1a5.45,5.45,0,0,1-2.489-.6A4.207,4.207,0,0,1,.607,7.43,5.013,5.013,0,0,1,0,4.854a5.074,5.074,0,0,1,.6-2.577A4.32,4.32,0,0,1,2.369.588a5.7,5.7,0,0,1,5.044,0A4.218,4.218,0,0,1,9.156,2.277,5.034,5.034,0,0,1,9.8,4.854a5.078,5.078,0,0,1-.64,2.576,4.317,4.317,0,0,1-1.75,1.689A5.331,5.331,0,0,1,4.944,9.723ZM4.9,7.182h.04a1.808,1.808,0,0,0,1.348-.6,2.4,2.4,0,0,0,.561-1.732A2.4,2.4,0,0,0,6.3,3.1,1.919,1.919,0,0,0,3.5,3.1V3.11a2.393,2.393,0,0,0-.6,1.738,2.4,2.4,0,0,0,.6,1.732,1.859,1.859,0,0,0,1.368.6Z" transform="translate(55.019 5.578)" fill="#202124"/><path d="M8.591,1.067a4.356,4.356,0,0,1,.959,2.962v5.5h-2.9V4.391a2.069,2.069,0,0,0-.5-1.484A1.738,1.738,0,0,0,4.821,2.37a1.81,1.81,0,0,0-1.4.561A2.232,2.232,0,0,0,2.9,4.524v5.02H0V.023H2.9v1.81A3.1,3.1,0,0,1,4.109.494,3.584,3.584,0,0,1,6,0,3.258,3.258,0,0,1,8.591,1.067Z" transform="translate(66.323 5.624)" fill="#202124"/><path d="M8.573,1.077a4.38,4.38,0,0,1,.959,3.017v5.49H6.655V4.4a2.094,2.094,0,0,0-.5-1.484A1.762,1.762,0,0,0,4.821,2.38a1.81,1.81,0,0,0-1.4.561A2.275,2.275,0,0,0,2.9,4.54V9.56H0V.027H2.9v1.81A3.149,3.149,0,0,1,4.109.492,3.566,3.566,0,0,1,6,0,3.282,3.282,0,0,1,8.573,1.077Z" transform="translate(77.81 5.62)" fill="#202124"/><path d="M4.754,9.729A5.456,5.456,0,0,1,2.3,9.14,4.2,4.2,0,0,1,.606,7.451,5.227,5.227,0,0,1,0,4.869a5.231,5.231,0,0,1,.6-2.582A4.1,4.1,0,0,1,2.3.6,5.2,5.2,0,0,1,4.725,0h.108A5.148,5.148,0,0,1,7.248.6,4.057,4.057,0,0,1,8.9,2.22a4.893,4.893,0,0,1,.6,2.414,3.753,3.753,0,0,1-.108.748H2.831a2.2,2.2,0,0,0,.543,1.533,1.925,1.925,0,0,0,2.323.15,1.525,1.525,0,0,0,.562-.832H9.329a4.079,4.079,0,0,1-.814,1.81,4.437,4.437,0,0,1-1.6,1.238A5.4,5.4,0,0,1,4.754,9.729ZM4.708,2.286a1.9,1.9,0,0,0-1.261.478,1.976,1.976,0,0,0-.6,1.388H6.56a1.74,1.74,0,0,0-.513-1.394,1.806,1.806,0,0,0-1.22-.472H4.708Z" transform="translate(88.764 5.604)" fill="#202124"/><path d="M6.087,9.3v2.5h-1.3A3.783,3.783,0,0,1,2.2,10.968a3.5,3.5,0,0,1-.923-2.721V4.694H0V2.25H1.273V0h2.9V2.25h1.9V4.664H4.181v3.62a1.086,1.086,0,0,0,.229.784,1.1,1.1,0,0,0,.772.217Z" transform="translate(99.029 3.403)" fill="#202124"/><path d="M0,11.56H.712a.929.929,0,0,0,.664-.2.875.875,0,0,0,.205-.652V0H4.5V10.685c0,2.25-1.134,3.373-3.391,3.373H.006Z" transform="translate(105.195 5.653)" fill="#202124"/><path d="M4.687,9.738a5.079,5.079,0,0,1-2.4-.6A4.138,4.138,0,0,1,.606,7.451,5.227,5.227,0,0,1,0,4.869a5.278,5.278,0,0,1,.6-2.588A4.13,4.13,0,0,1,2.3.6,5.2,5.2,0,0,1,4.725,0h.108A5.148,5.148,0,0,1,7.248.6,4.054,4.054,0,0,1,8.859,2.233a4.829,4.829,0,0,1,.6,2.413,3.672,3.672,0,0,1-.1.748H2.825a2.2,2.2,0,0,0,.544,1.533,1.925,1.925,0,0,0,2.323.151,1.528,1.528,0,0,0,.561-.832H9.323a4.059,4.059,0,0,1-.814,1.81,4.426,4.426,0,0,1-1.6,1.237,5.088,5.088,0,0,1-2.092.447H4.687ZM4.668,2.3a1.88,1.88,0,0,0-1.252.477,1.987,1.987,0,0,0-.6,1.388h3.7a1.74,1.74,0,0,0-.494-1.394A1.809,1.809,0,0,0,4.8,2.3H4.668Z" transform="translate(111.202 5.61)" fill="#202124"/><path d="M5.225.72a2.811,2.811,0,0,1,.658,2v3.62H4.6V2.856a1.81,1.81,0,0,0-.428-1.291,1.52,1.52,0,0,0-1.207-.459,1.611,1.611,0,0,0-1.207.489,2,2,0,0,0-.465,1.442V6.349H0V.116H1.291V1.468A2.1,2.1,0,0,1,2.13.382,2.443,2.443,0,0,1,3.487,0,2.244,2.244,0,0,1,5.225.72Z" transform="translate(124.09 8.789)" fill="#3c4043"/><path d="M1.285,0V8.368H0V0Z" transform="translate(131.481 6.775)" fill="#3c4043"/><circle cx="2.118" cy="2.118" r="2.118" transform="translate(106.112 0)" fill="#fcaf2e"/><circle cx="0.712" cy="0.712" r="0.712" transform="translate(121.514 13.707)" fill="#3c4043"/></svg>