<svg id="Group_3" data-name="Group 3" xmlns="http://www.w3.org/2000/svg" width="59.229" height="59.229" viewBox="0 0 59.229 59.229">
  <rect id="Rectangle" width="59.229" height="59.229" rx="2.76" transform="translate(0 0)" fill="#007aff"/>
  <path id="Shape" d="M11.5,28.246a7.354,7.354,0,0,1-3.357-.8A10.719,10.719,0,0,1,3.737,22.59a29.676,29.676,0,0,1-2.451-7.274A63.508,63.508,0,0,1,0,3.028a.3.3,0,0,1,.3-.3H5.414a.285.285,0,0,1,.285.3A57.82,57.82,0,0,0,7.148,15.212c.95,3.935,2.237,6.492,3.623,7.2a1.713,1.713,0,0,0,.749.157,5.511,5.511,0,0,0,2.909-1.2l.243-.171A17.141,17.141,0,0,1,11.257,6.1a9.313,9.313,0,0,1,2.9-4.465A7.042,7.042,0,0,1,18.657,0c3.329,0,6.131,2.294,7.314,5.986A17.142,17.142,0,0,1,23,20.757c-.018.021-1.821,2.123-2.372,2.729a23.393,23.393,0,0,1-1.986,1.743l-1,.786A10.829,10.829,0,0,1,11.5,28.246ZM18.657,5.585c-1.131,0-1.747,1.343-2.014,2.143A11.414,11.414,0,0,0,18.628,17.1a11.512,11.512,0,0,0,1.958-9.457C20.152,6.278,19.5,5.585,18.657,5.585Z" transform="translate(11.043 14.957)" fill="#fff"/>
  <path id="Path" d="M16.571.006H11.543a.3.3,0,0,0-.286.314c0,11.429-2.857,18.343-4.771,19.386a2.857,2.857,0,0,1-2.5-.286,22.271,22.271,0,0,1-2.271,2.686C1.171,22.634.6,23.148,0,23.634a10.614,10.614,0,0,0,5.714,1.9,7.257,7.257,0,0,0,3.429-.843c7.386-3.886,7.8-20.4,7.786-24.4a.3.3,0,0,0-.357-.286Z" transform="translate(31.314 17.68)" fill="#fff" opacity="0.72"/>
</svg>
