<svg xmlns="http://www.w3.org/2000/svg" viewBox="0 0 315.22 46.56"><defs><style>.cls-1{fill:#007aff;}.cls-2,.cls-3{fill:#fff;}.cls-3{opacity:0.72;}.cls-4{fill:#202124;}</style></defs><title>Asset 5</title><g id="Layer_2" data-name="Layer 2"><g id="Layer_1-2" data-name="Layer 1"><rect class="cls-1" width="46.56" height="46.56" rx="3.1"/><path class="cls-2" d="M23.33,31.07s1-.79,1.39-1.22c.58-.57,1.66-2,1.66-2a12,12,0,0,0,2.08-10.33c-.83-2.59-2.79-4.2-5.12-4.2S19,15,18.17,17.64a12,12,0,0,0,2.34,10.61l-.16.12c-1.11.78-2,1-2.57.73-2.11-1.08-3.47-7.84-3.55-13.57a.19.19,0,0,0-.2-.2H10.49a.2.2,0,0,0-.21.2c0,2.81.51,14.43,5.7,17.09,1.38.7,3.66,1.1,6.66-1C22.88,31.42,23.11,31.24,23.33,31.07ZM21.94,18.82c.14-.45.56-1.5,1.4-1.5s1.21,1,1.35,1.45a8,8,0,0,1-1.37,6.61A8,8,0,0,1,21.94,18.82Z"/><path class="cls-3" d="M36.07,15.33H32.53a.2.2,0,0,0-.2.21c0,8-2,12.84-3.34,13.57a2,2,0,0,1-1.74-.2,15.65,15.65,0,0,1-1.6,1.88c-.38.37-.78.73-1.19,1.07a7.4,7.4,0,0,0,4,1.34,5.05,5.05,0,0,0,2.4-.6c5.17-2.72,5.46-14.27,5.45-17.07A.2.2,0,0,0,36.07,15.33Z"/><path class="cls-4" d="M61.05,14.29h4.3a.22.22,0,0,1,.2.14l3.1,11.67A17.05,17.05,0,0,1,69,28h.07s.18-1,.42-1.91l3.28-11.63a.19.19,0,0,1,.19-.15h3.68a.19.19,0,0,1,.19.15L80.11,26.1c.25,1,.39,1.91.39,1.91h.07s.14-1,.39-1.91l3.1-11.67a.2.2,0,0,1,.19-.14h4.23a.19.19,0,0,1,.19.25L83.33,32.13a.21.21,0,0,1-.19.15H78.46a.19.19,0,0,1-.19-.15L75.28,22a18.13,18.13,0,0,1-.46-1.94h-.07A14.62,14.62,0,0,1,74.32,22l-3,10.12a.19.19,0,0,1-.19.15H66.43a.2.2,0,0,1-.19-.14l-5.38-17.6A.19.19,0,0,1,61.05,14.29Z"/><path class="cls-4" d="M98.71,13.86c5.19,0,8,3.78,8,8.54,0,.4-.06,1.2-.09,1.55a.19.19,0,0,1-.19.18H94.16a5.12,5.12,0,0,0,5.4,4.76,8.8,8.8,0,0,0,5-1.83.2.2,0,0,1,.3.07L106.4,30a.2.2,0,0,1-.05.25,11.36,11.36,0,0,1-7.11,2.47,9.21,9.21,0,0,1-9.66-9.42C89.58,17.74,93.35,13.86,98.71,13.86Zm3.46,7.2c-.07-2.43-1.59-3.74-3.56-3.74a4.2,4.2,0,0,0-4.31,3.74Z"/><path class="cls-4" d="M110.44,14.29h3.9a.2.2,0,0,1,.2.2v2.9a12.36,12.36,0,0,1-.07,1.27h.07A6.2,6.2,0,0,1,120.26,14a5.19,5.19,0,0,1,.81.07v4.41a7.83,7.83,0,0,0-1.06-.07,5.09,5.09,0,0,0-4.9,3.77,9.71,9.71,0,0,0-.39,2.93v6.93a.2.2,0,0,1-.2.2h-4.08a.2.2,0,0,1-.2-.2V14.49A.2.2,0,0,1,110.44,14.29Z"/><path class="cls-4" d="M124,7.14h4.08a.2.2,0,0,1,.2.2v13.3h2.22l4.28-6.27a.21.21,0,0,1,.16-.08h4.49a.2.2,0,0,1,.16.31l-5.46,7.73v.07L140.31,32a.2.2,0,0,1-.17.31h-4.67a.19.19,0,0,1-.17-.1l-4.71-7.77h-2.32v7.67a.2.2,0,0,1-.2.2H124a.2.2,0,0,1-.2-.2V7.34A.2.2,0,0,1,124,7.14Z"/><path class="cls-4" d="M143.35,7.14h4.08a.2.2,0,0,1,.2.2V15a13.27,13.27,0,0,1-.08,1.51h.08A6.32,6.32,0,0,1,153,13.86c4.87,0,8,3.85,8,9.42s-3.5,9.42-8.26,9.42A6.54,6.54,0,0,1,147.31,30h0v2.06a.2.2,0,0,1-.2.2h-3.76a.2.2,0,0,1-.2-.2V7.34A.2.2,0,0,1,143.35,7.14ZM152,28.93c2.47,0,4.52-2,4.52-5.58s-1.83-5.64-4.48-5.64c-2.33,0-4.52,1.69-4.52,5.68C147.48,26.17,149,28.93,152,28.93Z"/><path class="cls-4" d="M173,13.86a9.26,9.26,0,0,1,9.51,9.42,9.5,9.5,0,0,1-19,0A9.26,9.26,0,0,1,173,13.86Zm0,15c2.78,0,5.11-2.26,5.11-5.61s-2.33-5.61-5.11-5.61a5.29,5.29,0,0,0-5.15,5.61C167.89,26.63,170.23,28.89,173,28.89Z"/><path class="cls-4" d="M185.73,14.29h3.9a.2.2,0,0,1,.2.2v1.88a11.1,11.1,0,0,1-.07,1.23h.07a7,7,0,0,1,6.39-3.74c4,0,6.24,2.08,6.24,6.85V32.08a.2.2,0,0,1-.2.2h-4a.2.2,0,0,1-.2-.2V21.62c0-2.18-.57-3.66-2.86-3.66a5,5,0,0,0-4.83,3.66A7.53,7.53,0,0,0,190,24v8.06a.2.2,0,0,1-.2.2h-4.08a.2.2,0,0,1-.2-.2V14.49A.2.2,0,0,1,185.73,14.29Z"/><path class="cls-4" d="M206.87,14.29h3.9a.2.2,0,0,1,.2.2v1.88a11.1,11.1,0,0,1-.07,1.23H211a7,7,0,0,1,6.39-3.74c4,0,6.24,2.08,6.24,6.85V32.08a.2.2,0,0,1-.2.2h-4a.2.2,0,0,1-.2-.2V21.62c0-2.18-.57-3.66-2.86-3.66a5,5,0,0,0-4.83,3.66,7.53,7.53,0,0,0-.32,2.4v8.06a.2.2,0,0,1-.2.2h-4.08a.2.2,0,0,1-.2-.2V14.49A.2.2,0,0,1,206.87,14.29Z"/><path class="cls-4" d="M235.82,13.86c5.19,0,8,3.78,8,8.54,0,.4-.06,1.2-.09,1.55a.19.19,0,0,1-.19.18H231.27a5.12,5.12,0,0,0,5.4,4.76,8.8,8.8,0,0,0,5-1.83.2.2,0,0,1,.3.07L243.51,30a.2.2,0,0,1,0,.25,11.36,11.36,0,0,1-7.11,2.47,9.21,9.21,0,0,1-9.66-9.42C226.69,17.74,230.46,13.86,235.82,13.86Zm3.46,7.2c-.07-2.43-1.59-3.74-3.56-3.74a4.2,4.2,0,0,0-4.31,3.74Z"/><path class="cls-4" d="M247.05,14.57v-5a.2.2,0,0,1,.2-.2h4.08a.2.2,0,0,1,.2.2v4.71h3.69a.39.39,0,0,1,.4.4v2.76a.4.4,0,0,1-.4.4h-3.69v7.27c0,3,2.22,3.38,3.56,3.38h.81v3.85a8.15,8.15,0,0,1-1.37.1c-2.51,0-7.48-.74-7.48-6.77V14.57Z"/><path class="cls-4" d="M263.79,14.29a.2.2,0,0,1,.2.2V32.65c0,6-5.05,6.77-7.52,6.77a7.43,7.43,0,0,1-1.37-.11v-3.7h.77c1.64,0,3.64-.39,3.64-3.32V14.49a.2.2,0,0,1,.2-.2Z"/><path class="cls-4" d="M276.61,13.86c5.19,0,8,3.78,8,8.54,0,.4-.06,1.2-.09,1.55a.2.2,0,0,1-.2.18H272.06a5.12,5.12,0,0,0,5.4,4.76,8.8,8.8,0,0,0,5-1.83.2.2,0,0,1,.3.07L284.29,30a.2.2,0,0,1,0,.25,11.42,11.42,0,0,1-7.11,2.47,9.22,9.22,0,0,1-9.67-9.42C267.47,17.74,271.25,13.86,276.61,13.86Zm3.46,7.2c-.07-2.43-1.59-3.74-3.57-3.74a4.19,4.19,0,0,0-4.3,3.74Z"/><path class="cls-4" d="M289.16,28.92h0a1.75,1.75,0,0,1,1.75,1.75h0a1.75,1.75,0,0,1-1.75,1.75h0a1.76,1.76,0,0,1-1.75-1.75h0A1.75,1.75,0,0,1,289.16,28.92Z"/><path class="cls-4" d="M294.16,18.79H297a.2.2,0,0,1,.2.2v1.36a7.28,7.28,0,0,1-.06.92h.06a5.24,5.24,0,0,1,4.79-2.8c3,0,4.68,1.56,4.68,5.13v8.48a.2.2,0,0,1-.2.2h-2.94a.2.2,0,0,1-.2-.2V24.29c0-1.64-.42-2.75-2.14-2.75a3.71,3.71,0,0,0-3.62,2.75,5.52,5.52,0,0,0-.24,1.8v6a.2.2,0,0,1-.2.2h-3a.2.2,0,0,1-.2-.2V19A.2.2,0,0,1,294.16,18.79Z"/><path class="cls-4" d="M310.21,14.29h2.93a.2.2,0,0,1,.2.2V27.57c0,1.48.5,1.85,1.38,1.85a4.56,4.56,0,0,0,.5,0v2.94a7.56,7.56,0,0,1-1.06.08c-1.85,0-4.15-.48-4.15-4.34V14.49A.2.2,0,0,1,310.21,14.29Z"/><circle class="cls-4" cx="261.75" cy="9.38" r="2.24"/></g></g></svg>